<svg xmlns="http://www.w3.org/2000/svg" width="200" height="133" viewBox="0 0 200 133"><path d="M91.46 41.044c-2.664 2.944-8.137 6.118-10.186 5.908-3.288-.338-3.591.04-1.706 2.123 1.866 2.062 1.859 2.071-1.095 1.437-2.452-.526-2.663-.441-1.202.486.974.619 1.497 1.569 1.161 2.112-.388.628-1.124.561-2.021-.184-.907-.753-1.411-.796-1.411-.122 0 .577-.645 1.195-1.433 1.373-1.181.266-1.208.627-.155 2.052 1.177 1.592 1.6 1.452 5.366-1.771C83.046 50.805 91 47.314 91 49.094c0 .553-.687 2.333-1.526 3.956-.839 1.622-1.094 2.95-.567 2.95.527 0 1.255-.934 1.617-2.075.362-1.142.894-1.841 1.181-1.553 1.051 1.05-4.025 15.382-8.722 24.628-5.888 11.59-8.192 17.124-7.442 17.875.312.312.881.13 1.263-.404.383-.534 1.371-.971 2.196-.971 1.053 0 3.188-5.07 7.159-17 3.112-9.35 5.699-16.269 5.75-15.376.05.894-.584 3.538-1.409 5.876-2.266 6.423-1.716 8.073 1 3 2.405-4.491 3.434-11.695 1.5-10.5-1.284.793-1.259.095.169-4.67.778-2.595 1.433-3.474 1.958-2.624.629 1.017 1.043 1.024 2.031.036.989-.989.896-1.242-.458-1.242-2.427 0-2.101-2.37.8-5.818 3.419-4.063 3.192-5.633-.858-5.92-2.312-.164-3.921.389-5.182 1.782M55.418 59.917c-1.32 1.316.066 5.202 3.416 9.583 3.397 4.442 4.198 4.969 7.175 4.722 3.324-.276 3.337-.261 1.49 1.779-1.822 2.013-1.814 2.09.36 3.613 1.221.855 3.04 2.434 4.041 3.509 2.084 2.237 2.589 1.74 6.976-6.873 2.148-4.217 2.149-4.25.144-4.25-1.111 0-2.02.447-2.02.993s-1.8.922-4 .836C69.683 73.699 66.878 72 69.981 72c1.316 0 2.525-5.044 1.404-5.857-.487-.354-1.448-1.65-2.136-2.881-1.093-1.955-1.029-2.209.5-2 .963.131 1.751-.212 1.751-.762 0-.948-15.165-1.498-16.082-.583m67.139 37.215A225.417 225.417 0 0 0 121.403 108c-.233 3.025-.519 6.175-.636 7-.243 1.717 1.129 13.624 1.872 16.25.364 1.286 1.538 1.75 4.428 1.75 3.739 0 5.101-1.16 2.933-2.5-.55-.34-1-1.915-1-3.5s-.45-3.16-1-3.5c-.55-.34-.968-2.054-.93-3.809.058-2.61.214-2.827.856-1.191.782 1.991.692-8.305-.156-17.745-.565-6.288-1.41-6.87-2.283-1.572-.764 4.629-2.438 8.666-2.413 5.817.007-.825.403-3.524.881-5.998.477-2.474.522-5.114.1-5.867-.473-.846-1.046.684-1.498 3.997m32.201.618c-.938 1.513-1.717 2.132-1.731 1.378-.022-1.102-.321-1.129-1.514-.139-.818.679-2.154.979-2.968.667-.815-.313-1.757-.122-2.094.423-.734 1.188-8.464.965-10.112-.291-.697-.532-1.424-.46-1.819.18-.362.585-1.148.762-1.748.391-1.066-.659-.783 7.481.9 25.904l.618 6.764 33.105-.264 33.105-.263.313-11c.172-6.05.036-13.7-.302-17l-.614-6-5.199.182c-6.714.234-9.698-.518-9.698-2.445 0-1.392-.175-1.393-1.75-.01-2.733 2.4-5.569 2.925-16.541 3.06-9.987.123-10.202.077-9.896-2.081.41-2.889.008-2.783-2.055.544M2.061 104.833C1.38 105.047 1 110.145 1 119.083V133h34.718l1.229-10.25a2639.92 2639.92 0 0 1 1.772-14.51l.543-4.259-18.07.259c-9.938.143-18.547.41-19.131.593" fill="#ccc" fill-rule="evenodd"/></svg>