<svg xmlns="http://www.w3.org/2000/svg" width="200" height="145" viewBox="0 0 200 145"><path d="M0 72.5V145h40l-.017-4.25c-.01-2.338-.685-7.4-1.5-11.25-1.713-8.084-1.828-9.831-.596-9.07 1.978 1.222 3.53-2.441 1.777-4.194-1.552-1.553-1.664-1.504-1.664.716 0 4.589-.858 1.463-1.5-5.461-.356-3.845-1.333-10.06-2.17-13.811-1.599-7.163-1.418-8.311 1.151-7.325 1.141.437 1.386 1.328.898 3.272-.514 2.049-.367 2.484.632 1.866.717-.443 2.804-.749 4.639-.68 2.598.098 3.808-.513 5.471-2.763 1.196-1.617 2.736-2.658 3.499-2.366 1.626.625 3.124-2.601 1.642-3.535-.567-.357-1.959-2.309-3.094-4.338l-2.065-3.688 2.699-.412c2.448-.373 2.397-.425-.552-.561-2.156-.1-3.25-.655-3.25-1.65 0-.825-.45-1.5-1-1.5s-1 .498-1 1.107c0 .623-.73.827-1.67.466-.919-.352-1.967-.16-2.33.427-1.149 1.859-4-.086-4-2.729 0-2.113-.238-2.318-1.487-1.282-.818.679-2.168.974-3 .654-.832-.319-1.513-.144-1.513.388 0 .533.563.987 1.25 1.009.688.022.066.684-1.382 1.47-2.842 1.544-4.656 8.431-3.326 12.622.666 2.1.66 2.1-2.575.237-4.773-2.75-6.959-6.919-6.963-13.281-.004-5.673 3.368-13.249 6.417-14.419.811-.311 1.944-2.311 2.518-4.444 1.356-5.036 3.341-5.935 15.561-7.048 7.951-.725 10.454-.632 12.215.456 6.87 4.241 10.486.163 5.832-6.579-2.749-3.981-4.931-14.699-3.21-15.763.575-.355 1.266-.003 1.536.782s1.075-2.577 1.789-7.47c1.439-9.859 1.912-10.905 3.78-8.351.703.961 1.61 1.748 2.015 1.748.406 0 2.726 2.212 5.156 4.915 4.765 5.299 10.911 7.555 13.878 5.093.782-.649 1.878-.898 2.435-.554.558.345 2.791-1.047 4.964-3.093 6.068-5.715 8.435-5.386 7.566 1.051-.377 2.798-1.084 5.846-1.571 6.772-.487.927-.885 3.263-.885 5.191 0 3.982-.719 4.632-7 6.324-6.117 1.648-8.573 1.585-10.429-.27C78.143 38 78 38.011 78 39.545c0 1.274-.552 1.531-2.25 1.048-3.378-.962-8.429-1.698-7-1.019.688.326 1.25 1.4 1.25 2.387 0 .987.618 2.307 1.373 2.934C73.04 46.278 76 45.318 76 43.393c0-2.281 2.479-1.609 8.15 2.211 4.092 2.757 5.421 3.253 5.653 2.108.169-.838 1.05-1.319 2-1.092 2.407.576 5.119-1.347 3.436-2.436-.934-.604-.569-1.445 1.41-3.25 2.145-1.955 2.541-2.073 2.011-.602-.363 1.007-.66 2.899-.66 4.204 0 1.305-1.095 3.468-2.434 4.807l-2.433 2.434 3.076.615c1.693.338 3.575.212 4.184-.282 1.215-.984 21.986-1.442 24.809-.546.967.307 2.658 2.593 3.758 5.079 1.1 2.486 3.134 5.868 4.52 7.516 1.386 1.647 2.52 3.874 2.52 4.949 0 1.075.675 2.214 1.5 2.53.825.317 1.493 1.315 1.485 2.219-.014 1.429-.146 1.448-1.015.143-.701-1.053-.807-.235-.356 2.75.433 2.867.275 4.25-.486 4.25-.62 0-1.135-1.237-1.143-2.75-.013-2.309-1.762-6.797-2.046-5.25l-.449 2.4c-.661 3.517-2.958 3.851-3.31.481-.309-2.959-.386-3.004-2.25-1.317-1.85 1.673-1.93 1.657-1.93-.409 0-1.185-.633-2.155-1.406-2.155-.914 0-1.224.7-.884 2 .402 1.535.031 2-1.593 2-1.165 0-2.117.627-2.117 1.393 0 1.439-2.072 2.607-4.626 2.607-.804 0-1.371-.562-1.26-1.25.253-1.572-1.098-4.75-2.02-4.75-.381 0-.519 1.488-.306 3.306.322 2.76-2.421 7.767-2.913 5.316a28.09 28.09 0 0 1-.25-1.622c-.069-.55-.486-.964-.928-.92-.441.045-1.948-.67-3.348-1.587l-2.546-1.668.678 3.087c.588 2.678.402 3.088-1.402 3.088-1.558 0-2.079.634-2.079 2.531 0 3.212-2.509 4.223-4.966 2-1.131-1.024-2.666-1.465-3.821-1.099-2.769.879-4.312-1.433-3.332-4.992.585-2.124 1.339-2.857 2.715-2.64 4.533.715 7.554.444 8.687-.781.975-1.052.888-1.198-.436-.735-.909.318-2.484-.102-3.5-.934-1.663-1.362-1.672-1.458-.097-.963.963.303 1.75.072 1.75-.512s-.9-1.298-2-1.585c-1.315-.344-2.04-1.425-2.118-3.157-.116-2.584-.133-2.577-.882.367-.592 2.328-.808 1.433-.961-4-.108-3.85-.424-6.437-.701-5.75-.346.856-3.236 1.275-9.171 1.329-4.767.043-7.992.304-7.167.579.825.275 2.162.714 2.972.975 1.211.391 1.233.622.122 1.309-1.991 1.231-.379 3.056 2.715 3.073 2.105.012 2.364.227 1.191.985-2.415 1.56-5.85 1.15-7.95-.95-1.934-1.934-1.97-1.934-4.25.083-1.706 1.509-1.848 1.892-.55 1.482 1.3-.41 1.761.018 1.792 1.666.061 3.237 3.482 9.298 4.405 7.805.543-.879 1.117-.715 2.117.604 1.974 2.603 1.744 3.545-.564 2.31-1.596-.854-2-.76-2 .465 0 .844-.48 1.535-1.067 1.535-.648 0-.792-.885-.367-2.25.683-2.196.651-2.206-1.329-.439-1.511 1.348-2.139 1.483-2.457.528-.302-.906-1.315-.558-3.453 1.189-2.785 2.275-3.041 3.016-3.215 9.313-.217 7.864.427 10.659 2.455 10.659 2.444 0 1.579 2.76-1.567 5-3.137 2.234-4.083 4.353-1.5 3.362.825-.317 1.5-.078 1.5.531S61.325 113 60.5 113s-1.5.498-1.5 1.107-.675.848-1.5.531c-1.02-.391-1.5.054-1.5 1.393 0 3.32.072 3.473 1.559 3.33.792-.076 1.441.261 1.441.75s-.45.889-1 .889-1 .848-1 1.883c0 1.038-.891 2.117-1.985 2.403-1.833.479-1.955 1.217-1.608 9.675.208 5.036.685 9.465 1.062 9.842.377.377.538-3.476.358-8.561-.287-8.129-.124-9.246 1.356-9.244.925.001 1.961-.875 2.301-1.947.939-2.959 5.458-.768 5.501 2.668.008.674-.655.961-1.485.643-.825-.317-1.5-.126-1.5.424s.675 1.259 1.5 1.576c2.463.945 1.74 2.917-.886 2.415-2.132-.407-2.45-.02-2.987 3.633-.33 2.25-.887 5.215-1.238 6.59-.623 2.437-.599 2.45.954.5.876-1.1 1.608-3.494 1.625-5.32.043-4.489 4.339-4.362 4.856.145.295 2.579.143 2.728-1.75 1.714-2.643-1.414-2.628-.692.047 2.386 2.089 2.401 2.378 2.439 18.459 2.425 15.219-.014 16.379-.146 16.946-1.932.335-1.055.993-1.918 1.462-1.918s1.166-1.463 1.548-3.25c1.266-5.922 3.861-7.465 5.464-3.25 2.052 5.398 6 1.779 6-5.5 0-4.549 1.567-8.386 3.05-7.469.523.323.95.11.95-.472s-.45-1.059-1-1.059-1.041-2.362-1.09-5.25c-.09-5.216-.097-5.227-1.093-1.752-.552 1.925-1.386 3.736-1.855 4.025-.468.29-.989 2.653-1.157 5.251-.168 2.598-.53 4.762-.805 4.807-.275.046-1.844.301-3.486.567l-2.986.484 2.236-2.381c2.274-2.42 3.231-5.146 1.036-2.951-1.719 1.719-2.49 1.493-3.119-.912-.492-1.88-.229-2.048 2.383-1.525 2.343.468 2.933.239 2.921-1.138-.012-1.323-.212-1.415-.859-.394-.597.941-1.024.429-1.46-1.75-.705-3.524-3.553-4.227-4.376-1.081-.862 3.296-2.604 2.318-1.924-1.08.738-3.691-1.857-7.335-3.441-4.832-.492.777-.901 1.75-.91 2.162-.008.412-.69.75-1.515.75s-1.5.45-1.5 1 .661 1 1.469 1c.946 0 1.268.622.905 1.75-.475 1.477-.394 1.516.516.25 1.38-1.918 1.432-.471.075 2.066-.642 1.2-.668 1.934-.068 1.934.533 0 1.254.9 1.603 2 .853 2.687 2.5 2.545 2.5-.214 0-2.076.105-2.109 1.685-.53 1.361 1.361 1.468 2.123.558 3.964-.62 1.254-1.406 3.855-1.747 5.78-.915 5.158-2.493 8.785-4.088 9.397-2.092.803-1.724-2.081.556-4.361 2.086-2.086 1.404-3.499-.978-2.027a2.299 2.299 0 0 1-2.69-.178c-.699-.58-2.064-.747-3.033-.371-1.678.65-1.679.745-.013 1.972 1.973 1.453 2.355 6.076.592 7.165-.793.491-.98.037-.593-1.441.622-2.378-.216-2.789-2.016-.989-.89.89-1.327.751-1.839-.584-.429-1.117-.917-1.354-1.35-.655-.87 1.408-6.688-.519-9.514-3.151-1.311-1.222-2.134-1.465-2.387-.705-.213.638.231 1.55.985 2.028 1.08.685 1 .873-.378.885-1.078.009-1.75.783-1.75 2.015 0 2.234-2.204 2.671-3.782.75-.565-.687-.845-2.787-.622-4.667.466-3.944 1.404-5.447 1.404-2.25 0 1.192.455 2.167 1.012 2.167.607 0 .798-1.699.478-4.25-.464-3.693-.38-3.955.641-2 1.553 2.974 2.694 2.839 3.952-.467 1.442-3.793 2.834-5.252 4.427-4.641 1.69.649.788 3.358-1.117 3.358-.766 0-1.393.45-1.393 1s.502 1 1.115 1c.681 0 .477.974-.523 2.5-.901 1.375-1.182 2.5-.624 2.5.558 0 1.577-.9 2.264-2 1.604-2.568 2.526-2.52 4.772.25 1.003 1.237 2.16 1.915 2.57 1.506.411-.409-.031-1.603-.982-2.654-1.464-1.619-1.531-2.227-.434-3.984l1.295-2.074 1.131 2.113c1.577 2.947 2.311 1.039 1.191-3.098l-.931-3.44-2.02 3.19c-2.18 3.443-4.598 4.506-2.859 1.257.569-1.064 1.003-2.752.965-3.75-.064-1.638-.162-1.62-1.008.184-.763 1.627-.875 1.395-.603-1.25.227-2.202-.093-3.25-.992-3.25-.73 0-1.374-.562-1.432-1.25-.058-.687-.66.548-1.339 2.746-1.268 4.106-6.228 8.168-8.796 7.205-.753-.283-.254-.896 1.24-1.524 1.375-.577 1.911-1.079 1.191-1.114-.72-.034-1.043-.493-.718-1.019.325-.526 1.252-.703 2.059-.393.807.309 1.468.065 1.468-.544 0-1.551-3.131-1.323-5.397.393-1.044.79-2.281 1.199-2.75.909-.469-.29-.867.287-.883 1.282-.03 1.736-.074 1.735-1.092-.016-1.251-2.151-.948-2.585 2.237-3.195 3.62-.693 5.12-3.37 4.418-7.886l-.607-3.906 2.004 2.406c1.102 1.323 2.018 1.934 2.037 1.356.018-.577-.366-1.477-.855-2-1.871-2.003-2.313-5.45-.698-5.45.851 0 1.826 1.107 2.165 2.459.927 3.694 3.683 5.711 3.409 2.495-.341-4-.079-4.784 1.762-5.265 1.598-.417 1.59-.467-.083-.573-2.114-.134-1.718-2.616.416-2.616.779 0 1.737-.78 2.129-1.733.391-.954 1.291-1.554 2-1.334.708.22 2.582.685 4.163 1.034 2.704.596 2.843.871 2.339 4.632-.452 3.364-.313 3.813.875 2.827.97-.805 1.411-.83 1.411-.08 0 .6.667.835 1.482.523 1.012-.389 1.213-1.092.635-2.219-1.159-2.258-.318-4.15 1.844-4.15 2.757 0 4.366-2.617 3.689-6.002-.339-1.691-.175-2.998.375-2.998.536 0 .975.822.975 1.826 0 2.261 3.448 5.435 7.75 7.133 2.183.862 3.28 1.983 3.34 3.412.069 1.636.301 1.435 1.002-.871 1.338-4.405 3.915-7.218 8.263-9.018l3.856-1.597-.488 4.308c-.267 2.369-.998 7.457-1.623 11.307a991.909 991.909 0 0 0-2.18 14.23c-.574 3.976-2.141 9.93-3.482 13.23-1.341 3.3-2.438 6.239-2.438 6.531 0 .292 18.788.414 41.75.27l41.75-.261.257-72.25.256-72.25H0v72.5m.474.5c0 39.875.124 56.188.276 36.25.151-19.937.151-52.562 0-72.5C.598 16.813.474 33.125.474 73" fill="#ccc" fill-rule="evenodd"/></svg>